<?xml version="1.0" encoding="UTF-8"?>
<svg width="100pt" height="100pt" version="1.1" viewBox="0 0 100 100" xmlns="http://www.w3.org/2000/svg">
 <g>
  <path d="m50 5c-11.934 0-23.379 4.7422-31.82 13.18-8.4375 8.4414-13.18 19.887-13.18 31.82s4.7422 23.379 13.18 31.82c8.4414 8.4375 19.887 13.18 31.82 13.18s23.379-4.7422 31.82-13.18c8.4375-8.4414 13.18-19.887 13.18-31.82-0.011719-11.93-4.7578-23.367-13.195-31.805s-19.875-13.184-31.805-13.195zm0 84c-10.344 0-20.262-4.1094-27.578-11.422-7.3125-7.3164-11.422-17.234-11.422-27.578s4.1094-20.262 11.422-27.578c7.3164-7.3125 17.234-11.422 27.578-11.422s20.262 4.1094 27.578 11.422c7.3125 7.3164 11.422 17.234 11.422 27.578-0.011719 10.34-4.125 20.254-11.438 27.562-7.3086 7.3125-17.223 11.426-27.562 11.438z"/>
  <path d="m50 41.32c-1.0625 0-2.0781 0.42188-2.8281 1.1719s-1.1719 1.7656-1.1719 2.8281v25.105c0 2.207 1.7891 4 4 4s4-1.793 4-4v-25.105c0-1.0625-0.42188-2.0781-1.1719-2.8281s-1.7656-1.1719-2.8281-1.1719z"/>
  <path d="m54 29.574c0 5.332-8 5.332-8 0s8-5.332 8 0"/>
 </g>
</svg>
