<?xml version="1.0" encoding="UTF-8"?>
<svg width="100pt" height="100pt" version="1.1" viewBox="0 0 100 100" xmlns="http://www.w3.org/2000/svg">
 <g>
  <path d="m50 67.5c-6.3984 0-12-4.5-13.301-10.801l-6.6992 1.4023c2 9.3984 10.398 16.301 20 16.301s18.102-6.8008 20-16.301l-6.6992-1.3984c-1.3008 6.1953-6.9023 10.797-13.301 10.797z"/>
  <path d="m50 2.5c-26.199 0-47.5 21.301-47.5 47.5s21.301 47.5 47.5 47.5 47.5-21.301 47.5-47.5-21.301-47.5-47.5-47.5zm0 88.102c-22.398 0-40.602-18.203-40.602-40.602s18.203-40.602 40.602-40.602 40.602 18.203 40.602 40.602-18.203 40.602-40.602 40.602z"/>
  <path d="m40.699 38.801c0 3.3672-2.7305 6.0977-6.0977 6.0977-3.3711 0-6.1016-2.7305-6.1016-6.0977 0-3.3711 2.7305-6.1016 6.1016-6.1016 3.3672 0 6.0977 2.7305 6.0977 6.1016"/>
  <path d="m71.5 38.801c0 3.3672-2.7305 6.0977-6.1016 6.0977-3.3672 0-6.0977-2.7305-6.0977-6.0977 0-3.3711 2.7305-6.1016 6.0977-6.1016 3.3711 0 6.1016 2.7305 6.1016 6.1016"/>
 </g>
</svg>
