<svg width="50" height="50" viewBox="0 0 50 50" fill="none" xmlns="http://www.w3.org/2000/svg">
<path fill-rule="evenodd" clip-rule="evenodd" d="M43.6992 16.2502C39.2987 16.5509 35.5486 19.301 33.7501 23.0997H39.4492C41.7987 23.0997 43.75 25 43.75 27.4004V35.9515C43.75 38.3011 41.8495 40.2523 39.4492 40.2523L30.8007 40.2503C28.4511 40.2503 26.4999 38.3499 26.4999 35.9495V27.4005C26.4999 17.9515 34.1988 10.25 43.6503 10.25C43.6503 10.25 45.3495 10.25 45.3495 11.9492V14.5C45.4003 16.25 43.6992 16.25 43.6992 16.25V16.2502ZM22.2502 16.2502C17.8498 16.5509 14.0997 19.301 12.3012 23.0997H18.0002C20.3498 23.0997 22.301 25 22.301 27.4004V35.9515C22.301 38.3011 20.4006 40.2523 18.0002 40.2523L9.40065 40.2503C7.05105 40.2503 5.09985 38.3499 5.09985 35.9495V27.4005C5.09985 17.9515 12.7989 10.25 22.2504 10.25C22.2504 10.25 23.9496 10.25 23.9496 11.9492V14.5C23.9496 16.25 22.2504 16.25 22.2504 16.25L22.2502 16.2502Z" fill="#4232FF" fill-opacity="0.3"/>
</svg>
