<svg width="100" height="100" viewBox="0 0 100 100" fill="none" xmlns="http://www.w3.org/2000/svg">
<path fill-rule="evenodd" clip-rule="evenodd" d="M90.398 54.898V72.597C90.398 77.4954 86.398 81.4954 81.4996 81.4954L63.8006 81.4993C58.9022 81.4993 54.9022 77.4993 54.9022 72.6009L54.8983 54.8979C54.8983 35.2959 70.7963 19.4999 90.2963 19.4999L90.3002 31.9999C81.1986 32.6015 73.4022 38.1991 69.6982 46.1019H81.4992C86.3976 46.1019 90.3976 50.0003 90.3976 54.8988L90.398 54.898ZM37.199 81.5H19.5C14.6016 81.5 10.6016 77.5 10.6016 72.6016V54.8986C10.6016 35.2966 26.4996 19.5006 45.9996 19.5006V32.0006C36.898 32.6022 29.1016 38.1998 25.3976 46.1026H37.1986C42.097 46.1026 46.097 50.1026 46.097 55.001V72.7C46.1009 77.5008 42.1009 81.5008 37.1986 81.5008L37.199 81.5Z" fill="black"/>
</svg>
