<svg width="1200" height="650" viewBox="0 0 1200 650" fill="none" xmlns="http://www.w3.org/2000/svg">
<rect width="1200" height="650" fill="#FFD800"/>
<path d="M615.673 367.266L623.807 384.425L646.932 337.733L638.718 320.409L615.673 367.266Z" fill="#FFD800"/>
<path d="M551.321 401.748L551.56 421.877L571.256 421.547L570.778 385.744" fill="#FFD800"/>
<path d="M602.914 352.417L616.869 388.385L631.063 388.22L631.223 420.722L579.55 421.712L578.672 352.912L602.914 352.417Z" fill="#FFD800"/>
<path d="M549.088 456.855C549.327 469.724 554.59 479.954 560.81 479.789C579.31 479.459 597.811 479.129 616.391 478.799C622.61 478.634 627.634 468.404 627.634 455.535C627.634 454.545 627.634 453.72 627.634 452.731C627.555 439.696 622.292 429.467 616.072 429.632C597.412 429.962 578.752 430.292 560.092 430.622C553.872 430.622 548.769 441.016 549.008 454.05C549.008 454.875 549.008 455.865 549.088 456.855Z" fill="#FFD800"/>
</svg>
