<svg width="477" height="259" viewBox="0 0 477 259" fill="none" xmlns="http://www.w3.org/2000/svg">
<rect width="477" height="258.712" fill="#FFD800"/>
<path d="M191.325 170.723L193.853 176.055L201.039 161.546L198.487 156.162L191.325 170.723Z" fill="#FFD800"/>
<path d="M171.327 181.438L171.401 187.693L177.522 187.591L177.373 176.465" fill="#FFD800"/>
<path d="M187.36 166.109L191.697 177.287L196.108 177.235L196.157 187.336L180.099 187.643L179.827 166.263L187.36 166.109Z" fill="#FFD800"/>
<path d="M170.633 198.563C170.707 202.562 172.343 205.741 174.276 205.69C180.025 205.587 185.774 205.485 191.548 205.382C193.481 205.331 195.042 202.152 195.042 198.153C195.042 197.845 195.042 197.589 195.042 197.281C195.017 193.231 193.382 190.052 191.449 190.103C185.65 190.206 179.852 190.308 174.053 190.411C172.12 190.411 170.534 193.641 170.608 197.691C170.608 197.948 170.608 198.255 170.633 198.563Z" fill="#FFD800"/>
</svg>
